<?xml version="1.0" encoding="UTF-8" standalone="no"?>
<svg
   xmlns:dc="http://purl.org/dc/elements/1.1/"
   xmlns:cc="http://creativecommons.org/ns#"
   xmlns:rdf="http://www.w3.org/1999/02/22-rdf-syntax-ns#"
   xmlns:svg="http://www.w3.org/2000/svg"
   xmlns="http://www.w3.org/2000/svg"
   xmlns:sodipodi="http://sodipodi.sourceforge.net/DTD/sodipodi-0.dtd"
   xmlns:inkscape="http://www.inkscape.org/namespaces/inkscape"
   version="1.0"
   width="840.000000pt"
   height="859.000000pt"
   viewBox="0 0 840.000000 859.000000"
   preserveAspectRatio="xMidYMid meet"
   id="svg6"
   sodipodi:docname="burn-icon.svg"
   inkscape:version="0.92.5 (2060ec1f9f, 2020-04-08)">
  <metadata
     id="metadata12">
    <rdf:RDF>
      <cc:Work
         rdf:about="">
        <dc:format>image/svg+xml</dc:format>
        <dc:type
           rdf:resource="http://purl.org/dc/dcmitype/StillImage" />
      </cc:Work>
    </rdf:RDF>
  </metadata>
  <defs
     id="defs10" />
  <sodipodi:namedview
     pagecolor="#ffffff"
     bordercolor="#666666"
     borderopacity="1"
     objecttolerance="10"
     gridtolerance="10"
     guidetolerance="10"
     inkscape:pageopacity="0"
     inkscape:pageshadow="2"
     inkscape:window-width="793"
     inkscape:window-height="480"
     id="namedview8"
     showgrid="false"
     inkscape:zoom="0.20605355"
     inkscape:cx="560"
     inkscape:cy="572.66667"
     inkscape:window-x="0"
     inkscape:window-y="38"
     inkscape:window-maximized="0"
     inkscape:current-layer="svg6" />
  <g
     transform="matrix(0.07756432,0,0,-0.06919987,70.754579,712.17477)"
     id="g4"
     style="fill:#000000;stroke:none">
    <path
       d="m 3694,8538 c 2,-7 28,-82 56,-167 258,-783 228,-1390 -93,-1879 -90,-137 -174,-238 -312,-377 -178,-179 -274,-259 -835,-699 -411,-322 -794,-682 -996,-936 -361,-452 -558,-937 -620,-1520 -19,-182 -14,-491 10,-658 84,-564 333,-1052 733,-1432 335,-318 786,-570 1314,-734 146,-45 337,-96 360,-96 7,0 -23,21 -67,48 -260,156 -491,393 -658,674 -268,451 -353,1056 -225,1608 78,337 265,714 496,1000 76,95 301,326 309,318 3,-3 -6,-50 -20,-105 -47,-184 -60,-286 -59,-478 0,-147 4,-199 22,-285 69,-325 238,-566 476,-680 108,-52 180,-70 307,-77 129,-7 211,5 391,57 163,47 293,65 409,56 224,-17 404,-100 554,-258 166,-173 250,-383 261,-649 19,-471 -164,-837 -521,-1040 -42,-23 -74,-44 -72,-47 8,-7 326,72 461,115 1179,380 1988,1374 2146,2638 19,155 17,525 -5,670 -35,239 -115,494 -222,708 -57,113 -151,271 -285,477 -251,390 -331,567 -359,804 -24,202 25,436 145,693 50,107 57,100 -85,78 -458,-74 -747,-315 -865,-721 -56,-193 -68,-375 -56,-829 4,-158 -8,-229 -59,-341 -91,-202 -284,-365 -495,-419 -72,-19 -231,-21 -300,-5 -166,40 -328,166 -399,310 -52,107 -65,205 -43,324 29,158 98,277 268,461 488,530 613,1281 326,1966 -211,503 -637,964 -1259,1362 -120,77 -144,88 -134,65 z"
       id="path2"
       inkscape:connector-curvature="0" />
  </g>
</svg>
