<?xml version="1.0" encoding="UTF-8" standalone="no"?>
<!-- Generator: Adobe Illustrator 19.0.0, SVG Export Plug-In . SVG Version: 6.00 Build 0)  -->

<svg
   xmlns:dc="http://purl.org/dc/elements/1.1/"
   xmlns:cc="http://creativecommons.org/ns#"
   xmlns:rdf="http://www.w3.org/1999/02/22-rdf-syntax-ns#"
   xmlns:svg="http://www.w3.org/2000/svg"
   xmlns="http://www.w3.org/2000/svg"
   xmlns:sodipodi="http://sodipodi.sourceforge.net/DTD/sodipodi-0.dtd"
   xmlns:inkscape="http://www.inkscape.org/namespaces/inkscape"
   version="1.1"
   id="Capa_1"
   x="0px"
   y="0px"
   viewBox="0 0 502.648 502.648"
   style="enable-background:new 0 0 502.648 502.648;"
   xml:space="preserve"
   sodipodi:docname="com-icon.svg"
   inkscape:version="0.92.5 (2060ec1f9f, 2020-04-08)"><metadata
   id="metadata81"><rdf:RDF><cc:Work
       rdf:about=""><dc:format>image/svg+xml</dc:format><dc:type
         rdf:resource="http://purl.org/dc/dcmitype/StillImage" /></cc:Work></rdf:RDF></metadata><defs
   id="defs79" /><sodipodi:namedview
   pagecolor="#ffffff"
   bordercolor="#666666"
   borderopacity="1"
   objecttolerance="10"
   gridtolerance="10"
   guidetolerance="10"
   inkscape:pageopacity="0"
   inkscape:pageshadow="2"
   inkscape:window-width="793"
   inkscape:window-height="480"
   id="namedview77"
   showgrid="false"
   inkscape:zoom="0.46951345"
   inkscape:cx="251.32401"
   inkscape:cy="251.32401"
   inkscape:window-x="0"
   inkscape:window-y="38"
   inkscape:window-maximized="0"
   inkscape:current-layer="Capa_1" />
<g
   id="g44"
   transform="matrix(0.6864411,0,0,0.74652479,76.674902,63.704404)">
	<g
   id="g12">
		<g
   id="g10">
			<circle
   style="fill:#010002"
   cx="250.399"
   cy="91.549004"
   r="58.694"
   id="circle2" />
			<path
   style="fill:#010002"
   d="m 455.861,253.028 -54.703,-11.411 c -18.637,-3.904 -37.037,4.638 -46.765,19.824 -9.448,-4.853 -19.608,-9.038 -30.415,-12.511 V 216.401 C 324,191.789 303.852,171.663 279.327,171.663 h -55.933 c -24.655,0 -44.716,20.126 -44.716,44.738 v 32.701 c -10.699,3.408 -20.751,7.593 -30.264,12.468 -9.728,-15.251 -28.15,-23.857 -46.809,-19.953 l -54.747,11.411 c -24.03,5.026 -39.626,28.862 -34.6,52.978 l 13.741,65.64 c 4.983,24.051 28.84,39.647 52.892,34.621 l 17.321,-3.624 c 8.671,12.813 20.665,24.569 36.023,34.621 31.989,20.967 74.247,32.529 119.092,32.529 68.617,0 127.721,-27.589 154.943,-67.215 l 17.602,3.689 c 24.03,5.004 47.887,-10.57 52.87,-34.621 l 13.762,-65.64 c 5.004,-24.116 -10.592,-47.952 -34.643,-52.978 z M 251.305,447.381 c -40.51,0 -78.475,-10.203 -106.797,-28.862 -9.707,-6.342 -17.753,-13.395 -24.202,-20.945 l 13.266,-2.783 c 24.073,-5.004 39.669,-28.84 34.643,-52.913 L 155.898,282.86 c 7.183,-3.861 14.733,-7.248 22.757,-10.138 v 10.764 c 0,24.569 20.104,44.695 44.716,44.695 h 55.933 c 24.548,0 44.652,-20.147 44.652,-44.695 v -11.325 c 8.175,2.912 15.854,6.256 22.973,10.052 l -12.49,59.687 c -4.983,24.073 10.591,47.909 34.664,52.913 l 13.395,2.804 c -24.978,29.574 -74.397,49.764 -131.193,49.764 z"
   id="path4"
   inkscape:connector-curvature="0" />
			<circle
   style="fill:#010002"
   cx="443.95401"
   cy="168.70799"
   r="58.694"
   id="circle6" />
			<path
   style="fill:#010002"
   d="m 70.736,226.172 c 31.752,-6.644 52.029,-37.77 45.471,-69.501 -6.687,-31.709 -37.749,-52.072 -69.523,-45.428 -31.709,6.622 -52.072,37.727 -45.428,69.458 6.623,31.752 37.728,52.094 69.48,45.471 z"
   id="path8"
   inkscape:connector-curvature="0" />
		</g>
	</g>
	<g
   id="g14">
	</g>
	<g
   id="g16">
	</g>
	<g
   id="g18">
	</g>
	<g
   id="g20">
	</g>
	<g
   id="g22">
	</g>
	<g
   id="g24">
	</g>
	<g
   id="g26">
	</g>
	<g
   id="g28">
	</g>
	<g
   id="g30">
	</g>
	<g
   id="g32">
	</g>
	<g
   id="g34">
	</g>
	<g
   id="g36">
	</g>
	<g
   id="g38">
	</g>
	<g
   id="g40">
	</g>
	<g
   id="g42">
	</g>
</g>
<g
   id="g46">
</g>
<g
   id="g48">
</g>
<g
   id="g50">
</g>
<g
   id="g52">
</g>
<g
   id="g54">
</g>
<g
   id="g56">
</g>
<g
   id="g58">
</g>
<g
   id="g60">
</g>
<g
   id="g62">
</g>
<g
   id="g64">
</g>
<g
   id="g66">
</g>
<g
   id="g68">
</g>
<g
   id="g70">
</g>
<g
   id="g72">
</g>
<g
   id="g74">
</g>
</svg>