<?xml version="1.0" encoding="UTF-8" standalone="no"?>
<svg
   xmlns:osb="http://www.openswatchbook.org/uri/2009/osb"
   xmlns:dc="http://purl.org/dc/elements/1.1/"
   xmlns:cc="http://creativecommons.org/ns#"
   xmlns:rdf="http://www.w3.org/1999/02/22-rdf-syntax-ns#"
   xmlns:svg="http://www.w3.org/2000/svg"
   xmlns="http://www.w3.org/2000/svg"
   xmlns:xlink="http://www.w3.org/1999/xlink"
   xmlns:sodipodi="http://sodipodi.sourceforge.net/DTD/sodipodi-0.dtd"
   xmlns:inkscape="http://www.inkscape.org/namespaces/inkscape"
   id="Layer_1"
   data-name="Layer 1"
   viewBox="0 0 122.88 120.48"
   version="1.1"
   sodipodi:docname="exchange-logo.svg"
   inkscape:version="0.92.5 (2060ec1f9f, 2020-04-08)">
  <metadata
     id="metadata13">
    <rdf:RDF>
      <cc:Work
         rdf:about="">
        <dc:format>image/svg+xml</dc:format>
        <dc:type
           rdf:resource="http://purl.org/dc/dcmitype/StillImage" />
      </cc:Work>
    </rdf:RDF>
  </metadata>
  <sodipodi:namedview
     pagecolor="#ffffff"
     bordercolor="#666666"
     borderopacity="1"
     objecttolerance="10"
     gridtolerance="10"
     guidetolerance="10"
     inkscape:pageopacity="0"
     inkscape:pageshadow="2"
     inkscape:window-width="1272"
     inkscape:window-height="759"
     id="namedview11"
     showgrid="false"
     inkscape:zoom="1.9588313"
     inkscape:cx="50.204176"
     inkscape:cy="60.240002"
     inkscape:window-x="1589"
     inkscape:window-y="241"
     inkscape:window-maximized="0"
     inkscape:current-layer="Layer_1" />
  <defs
     id="defs4">
    <linearGradient
       inkscape:collect="always"
       id="linearGradient2610">
      <stop
         style="stop-color:#dca101;stop-opacity:1;"
         offset="0"
         id="stop2606" />
      <stop
         style="stop-color:#dca101;stop-opacity:0;"
         offset="1"
         id="stop2608" />
    </linearGradient>
    <linearGradient
       id="linearGradient2552"
       osb:paint="solid">
      <stop
         style="stop-color:#000000;stop-opacity:1;"
         offset="0"
         id="stop2550" />
    </linearGradient>
    <linearGradient
       id="linearGradient2546"
       osb:paint="solid">
      <stop
         style="stop-color:#dca101;stop-opacity:1;"
         offset="0"
         id="stop2544" />
    </linearGradient>
    <style
       id="style2">.cls-1{fill-rule:evenodd;}</style>
    <linearGradient
       inkscape:collect="always"
       xlink:href="#linearGradient2610"
       id="linearGradient2612"
       x1="7.1242821"
       y1="63.057777"
       x2="122.87716"
       y2="63.057777"
       gradientUnits="userSpaceOnUse"
       gradientTransform="matrix(0.60542833,0,0.1368334,0.63561912,0.93801493,25.019084)" />
  </defs>
  <title
     id="title6">crypto-exchange</title>
  <path
     class="cls-1"
     d="m 23.440329,67.705612 c 1.87035,12.422957 5.308992,20.05246 18.087627,20.05246 h 1.870323 l 0.815358,3.787498 c 0.407024,1.890714 0.89373,2.217947 1.908953,0.921109 l 5.425801,-7.005332 c 0.656886,-0.842343 0.418428,-1.393793 -0.556002,-2.211888 L 42.648187,76.27442 c -1.475333,-1.290776 -1.910259,-0.927177 -1.528021,0.848397 l 0.958858,4.454088 C 30.754769,82.346515 30.881835,74.910924 29.330706,67.705612 Z m 50.873217,-5.12068 C 72.443204,50.161979 69.003254,42.526408 56.224616,42.526408 H 54.354294 L 53.540245,38.744983 C 53.133219,36.854268 52.640809,36.52703 51.63129,37.823865 l -5.425801,7.005334 c -0.65689,0.842335 -0.418428,1.393795 0.555992,2.211892 l 8.35512,6.999273 c 1.474031,1.284716 1.908956,0.921116 1.528022,-0.848398 L 55.680549,48.713643 C 67.010509,47.944027 66.88345,55.37962 68.43458,62.584932 Z m -5.808076,5.01766 a 18.50142,14.705642 49.503617 1 0 12.37982,4.981302 18.409109,14.632271 49.503608 0 0 -12.37982,-4.981302 z m -0.225025,21.125085 -1.77943,-8.265817 c -0.08483,-0.605993 -0.529169,-0.84233 -1.151192,-0.818093 h -1.505381 l -0.480081,-2.230071 h 3.244554 l -0.596188,-2.769409 h 1.824706 l 0.601405,2.793649 h 1.613725 l -0.601406,-2.793649 h 1.83611 l 0.609232,2.830008 c 0.404852,0 0.639466,0.03031 1.015328,0.05455 1.692927,0.10301 2.934591,0.387838 4.031883,2.120987 a 3.9561125,3.1444707 49.503624 0 1 0.638452,1.508937 2.9473037,2.3426307 49.503615 0 1 -0.113077,1.593776 3.191264,2.5365396 49.503623 0 1 -1.079097,1.212 c 4.504042,0.605994 5.118094,7.193185 0.650119,7.708282 -0.378621,0.04241 -1.119575,0.09694 -2.059611,0.127263 l 0.607928,2.823953 H 73.76372 l -0.6001,-2.787588 h -1.62513 l 0.6001,2.787588 h -1.830407 l -0.6001,-2.787588 h -3.244554 l -0.01395,-2.157356 h 1.448359 c 0.483234,0.07271 0.567232,-0.278761 0.374537,-0.908991 z m 4.175377,-8.708194 0.699248,3.248154 c 2.062616,-0.563582 1.471293,-2.648207 -0.699248,-3.248154 z m 1.128449,5.241881 0.864927,4.017764 a 2.9011492,2.3059452 49.503613 0 0 0.396694,-0.09089 c 2.122925,-0.442378 2.039453,-3.187539 -0.740716,-3.811721 a 3.2967604,2.6203922 49.503622 0 0 -0.520871,-0.115122 z m -0.955526,4.090484 -0.896237,-4.163204 h -0.929462 l 0.896237,4.163204 z m -1.279778,-5.944831 -0.764477,-3.55115 h -0.929461 l 0.764476,3.55115 z M 22.02736,28.58846 A 18.50142,14.705642 49.503617 1 0 34.407181,33.569761 18.409109,14.632271 49.503608 0 0 22.02736,28.58846 Z m 3.390206,8.199149 a 7.1605635,5.6914918 49.503621 0 1 1.652272,0.496918 l 0.09089,-0.05455 a 1.8264051,1.4516973 49.503616 0 1 1.930186,0.357541 v 0 a 1.8725598,1.4883828 49.503609 0 1 0.493464,0.702956 9.283677,7.3790247 49.503609 0 1 0.609233,2.830009 1.8725598,1.4883828 49.503609 0 1 -0.190804,0.702959 c -0.451756,0.921116 -2.053486,0.605996 -2.715975,-0.484799 A 2.367074,1.8814416 49.503618 0 1 27.008119,40.732648 3.6000623,2.8614683 49.503614 0 0 26.015514,40.25391 4.6945867,3.7314385 49.503619 0 0 24.761808,40.072111 6.1649417,4.9001334 49.503616 0 0 23.574634,40.19937 c -1.252947,0.351479 -1.667124,1.817993 0.05066,2.46035 a 7.8594768,6.247015 49.503623 0 0 1.132846,0.309058 l 1.860793,0.406021 a 12.422193,9.8736379 49.503607 0 1 2.114821,0.605996 5.4989962,4.3708142 49.50362 0 1 1.568611,0.902938 4.6945867,3.7314385 49.503619 0 1 1.357757,1.539233 5.5781184,4.4337037 49.503614 0 1 0.755196,1.945254 5.3341582,4.2397947 49.503616 0 1 0.08345,1.817993 5.7891111,4.6014087 49.503619 0 1 -0.590271,1.575593 6.1583483,4.8948927 49.503617 0 1 -1.233064,1.211994 8.7298216,6.9387988 49.503618 0 1 -1.631188,0.66054 l 0.238736,1.108975 a 2.5450991,2.0229429 49.503623 0 1 0.06729,0.842337 1.5626644,1.2420659 49.503624 0 1 -0.215926,0.533279 1.7143154,1.362604 49.503622 0 1 -0.438502,0.399957 1.9780562,1.5722353 49.503614 0 1 -1.288698,0 1.7143154,1.362604 49.503622 0 1 -0.610704,-0.399957 1.7472829,1.3888078 49.503611 0 1 -0.445528,-0.533279 2.6967498,2.1434807 49.503618 0 1 -0.289677,-0.842337 l -0.24004,-1.115033 c -0.300764,-0.07272 -0.604139,-0.15756 -0.917129,-0.260578 -0.312991,-0.103031 -0.666715,-0.23634 -1.00464,-0.375719 a 2.6374082,2.0963138 49.503609 0 1 -0.406747,0.309059 1.7077217,1.3573631 49.503621 0 1 -0.58192,0.157559 2.1033331,1.6718101 49.503625 0 1 -0.717362,-0.127259 1.7077217,1.3573631 49.503621 0 1 -0.622107,-0.399958 1.7670636,1.4045303 49.503616 0 1 -0.492159,-0.696899 4.0286411,3.2021192 49.503616 0 1 -0.307449,-0.951417 l -0.39137,-1.817993 a 4.0418281,3.2126008 49.503621 0 1 -0.103489,-0.957476 1.8066248,1.435975 49.503622 0 1 2.75065,-0.466618 c 0.316799,0.412078 0.446919,0.963536 0.852008,1.308956 a 4.674806,3.7157161 49.503617 0 0 2.866441,0.945355 4.2726014,3.3960284 49.503616 0 0 2.162124,-0.763557 1.7340959,1.3783262 49.503621 0 0 0.315472,-0.521157 1.4769487,1.1739357 49.503624 0 0 -1.250804,-1.969492 8.3935516,6.6715182 49.503627 0 0 -1.210888,-0.32724 L 24.656333,46.28359 a 9.0594975,7.200838 49.503618 0 1 -2.049827,-0.648418 5.2748164,4.1926275 49.50362 0 1 -1.598132,-1.066555 5.0110757,3.9829962 49.503617 0 1 -1.241701,-6.138758 5.4660286,4.3446104 49.503616 0 1 1.096886,-1.102916 6.4946178,5.1621726 49.50362 0 1 1.351148,-0.557518 l -0.06523,-0.302998 a 2.8220268,2.2430557 49.503621 0 1 -0.07429,-0.848396 1.8593727,1.4779011 49.503626 0 1 3.005059,0 2.8220268,2.2430557 49.503621 0 1 0.268171,0.848396 l 0.06784,0.315117 z"
     id="path8"
     style="fill:url(#linearGradient2612);fill-opacity:1;fill-rule:nonzero;stroke:none;stroke-width:0.58783692"
     inkscape:connector-curvature="0" />
</svg>
