<?xml version="1.0" encoding="UTF-8" standalone="no"?>
<svg
   xmlns:dc="http://purl.org/dc/elements/1.1/"
   xmlns:cc="http://creativecommons.org/ns#"
   xmlns:rdf="http://www.w3.org/1999/02/22-rdf-syntax-ns#"
   xmlns:svg="http://www.w3.org/2000/svg"
   xmlns="http://www.w3.org/2000/svg"
   xmlns:xlink="http://www.w3.org/1999/xlink"
   xmlns:sodipodi="http://sodipodi.sourceforge.net/DTD/sodipodi-0.dtd"
   xmlns:inkscape="http://www.inkscape.org/namespaces/inkscape"
   id="Layer_1"
   enable-background="new 0 0 512 512"
   height="512"
   viewBox="0 0 512 512"
   width="512"
   version="1.1"
   sodipodi:docname="fair-icon.svg"
   inkscape:version="0.92.5 (2060ec1f9f, 2020-04-08)">
  <metadata
     id="metadata13">
    <rdf:RDF>
      <cc:Work
         rdf:about="">
        <dc:format>image/svg+xml</dc:format>
        <dc:type
           rdf:resource="http://purl.org/dc/dcmitype/StillImage" />
      </cc:Work>
    </rdf:RDF>
  </metadata>
  <defs
     id="defs11">
    <linearGradient
       inkscape:collect="always"
       id="linearGradient824">
      <stop
         style="stop-color:#dca101;stop-opacity:1;"
         offset="0"
         id="stop820" />
      <stop
         style="stop-color:#dca101;stop-opacity:0;"
         offset="1"
         id="stop822" />
    </linearGradient>
    <linearGradient
       inkscape:collect="always"
       xlink:href="#linearGradient824"
       id="linearGradient826"
       x1="-2.8421709e-14"
       y1="256"
       x2="512"
       y2="256"
       gradientUnits="userSpaceOnUse" />
    <linearGradient
       inkscape:collect="always"
       xlink:href="#linearGradient824"
       id="linearGradient818"
       gradientUnits="userSpaceOnUse"
       x1="-2.8421709e-14"
       y1="256"
       x2="512"
       y2="256" />
    <linearGradient
       inkscape:collect="always"
       xlink:href="#linearGradient824"
       id="linearGradient820"
       gradientUnits="userSpaceOnUse"
       x1="-2.8421709e-14"
       y1="256"
       x2="512"
       y2="256" />
  </defs>
  <sodipodi:namedview
     pagecolor="#ffffff"
     bordercolor="#666666"
     borderopacity="1"
     objecttolerance="10"
     gridtolerance="10"
     guidetolerance="10"
     inkscape:pageopacity="0"
     inkscape:pageshadow="2"
     inkscape:window-width="1415"
     inkscape:window-height="610"
     id="namedview9"
     showgrid="false"
     inkscape:zoom="0.4609375"
     inkscape:cx="-129.08475"
     inkscape:cy="256"
     inkscape:window-x="0"
     inkscape:window-y="38"
     inkscape:window-maximized="0"
     inkscape:current-layer="Layer_1" />
  <g
     id="g6"
     style="fill:url(#linearGradient826);fill-opacity:1"
     transform="matrix(0.63983051,0,0.10169492,0.60169491,65.084745,130.16949)">
    <path
       d="M 437.02,74.98 C 388.667,26.629 324.38,0 256,0 187.62,0 123.333,26.629 74.98,74.98 26.629,123.332 0,187.62 0,256 c 0,67.236 25.882,130.76 72.879,178.868 6.56,6.712 17.587,-3.463 10.729,-10.482 C 39.366,379.097 15,319.296 15,256 15,191.626 40.068,131.106 85.587,85.587 131.106,40.068 191.626,15 256,15 320.373,15 380.894,40.068 426.412,85.587 471.932,131.106 497,191.627 497,256 497,320.373 471.932,380.894 426.412,426.412 380.894,471.932 320.373,497 256,497 c -52.078,0 -101.658,-16.351 -143.381,-47.284 -7.537,-5.594 -16.816,6.205 -8.934,12.049 C 148.012,494.629 200.681,512 256,512 324.38,512 388.667,485.371 437.02,437.02 485.371,388.667 512,324.38 512,256 512,187.62 485.371,123.332 437.02,74.98 Z"
       id="path2"
       style="fill:url(#linearGradient818);fill-opacity:1"
       inkscape:connector-curvature="0" />
    <path
       d="m 385.647,145.525 c -18.028,-18.027 -41.997,-27.956 -67.492,-27.956 -23.067,0 -44.885,8.129 -62.184,23.029 -37.348,-32.119 -94.817,-29.891 -129.624,4.915 -35.212,35.213 -36.451,92.161 -4.875,130.13 -12.398,11.442 -13.723,31.022 -1.515,43.218 5.908,5.909 14.176,9.047 22.51,8.588 -0.955,17.331 13.751,32.052 31.098,31.098 -0.955,17.32 13.753,32.056 31.099,31.082 -1.564,28.119 33.256,40.779 51.797,21.019 4.804,4.608 10.487,8.95 18.68,10.014 17.989,2.335 34.405,-12.975 33.236,-31.051 17.168,0.765 32.164,-13.855 31.105,-31.098 4.671,0.199 9.469,-0.735 14.009,-2.854 11.162,-5.206 17.804,-16.208 17.093,-28.185 7.572,0.422 15.283,-2.029 21.271,-7.322 C 409,305 402.461,286.94 391.22,274.436 c 14.486,-17.175 22.384,-38.688 22.384,-61.418 0,-25.496 -9.929,-49.464 -27.957,-67.493 z M 140.808,312.499 c -12.582,0 -19.187,-15.791 -10.245,-24.734 l 26.62,-26.62 c 13.182,-13.182 33.695,7.288 20.491,20.49 l -26.621,26.621 c -2.736,2.736 -6.375,4.243 -10.245,4.243 z m 31.098,31.098 c -12.582,0 -19.189,-15.791 -10.246,-24.734 l 26.621,-26.62 c 13.182,-13.182 33.704,7.279 20.491,20.49 l -26.62,26.621 c -2.737,2.736 -6.376,4.243 -10.246,4.243 z m 20.852,26.853 c -5.539,-5.538 -5.55,-14.94 0,-20.49 l 26.62,-26.62 c 13.182,-13.182 33.694,7.286 20.491,20.49 l -26.62,26.62 c -5.649,5.651 -14.842,5.651 -20.491,0 z m 31.097,31.098 c -5.546,-5.566 -5.582,-14.909 0,-20.49 l 26.62,-26.621 c 13.198,-13.195 33.702,7.284 20.49,20.491 l -26.62,26.62 c -5.648,5.65 -14.84,5.65 -20.49,0 z m 69.484,-8.395 c -0.453,3.785 -2.418,7.204 -5.533,9.628 -7.001,5.448 -14.862,2.827 -20.733,-2.746 6.515,-6.515 15.185,-13.154 19.62,-21.363 4.107,3.796 7.354,8.58 6.646,14.481 z m 89.935,-85.308 c -4.131,4.131 -14.273,7.524 -21.28,0.527 -16.672,-16.658 -33.534,-33.535 -50.272,-50.273 -6.638,-6.634 -17.546,3.667 -10.607,10.607 16.757,16.757 33.535,33.491 50.271,50.27 13.038,13.075 -8.075,32.908 -20.491,20.491 -16.757,-16.757 -33.513,-33.514 -50.27,-50.271 -6.638,-6.634 -17.546,3.667 -10.607,10.607 16.738,16.738 33.627,33.587 50.271,50.271 13.024,13.056 -7.393,33.488 -20.464,20.514 l -9.885,-9.885 c -2.019,-15.054 -15.762,-26.304 -30.891,-25.459 0.967,-17.307 -13.77,-32.049 -31.083,-31.082 0.962,-17.315 -13.763,-32.075 -31.113,-31.097 0.457,-8.1 -2.397,-16.353 -8.571,-22.528 -11.498,-11.495 -30.206,-11.497 -41.704,0.001 l -14.315,14.315 c -22.627,-34.757 -26.84,-77.199 4.692,-108.732 28.946,-28.946 76.652,-31.221 108.168,-5.055 l -43.629,43.629 c -26.902,26.904 14.898,68.511 41.704,41.705 l 43.891,-43.892 35.617,35.637 c 6.635,6.639 17.545,-3.663 10.609,-10.604 0,0 -33.839,-35.362 -41.531,-41.511 -2.959,-2.367 -7.323,-2.107 -9.998,0.565 l -49.195,49.196 c -13.194,13.199 -33.7,-7.282 -20.491,-20.49 l 49.17,-49.17 c 15.194,-15.195 35.397,-23.563 56.886,-23.563 21.489,0 41.69,8.368 56.886,23.563 15.194,15.194 23.563,35.396 23.563,56.885 0,18.855 -6.448,36.716 -18.292,51.076 L 361.457,245.7 c -6.635,-6.639 -17.545,3.663 -10.609,10.604 6.941,6.545 27.195,26.036 27.195,26.036 5.274,5.337 15.624,15.827 5.231,25.505 z"
       id="path4"
       style="fill:url(#linearGradient820);fill-opacity:1"
       inkscape:connector-curvature="0" />
  </g>
</svg>
