<?xml version="1.0" encoding="UTF-8" standalone="no"?>
<svg
   xmlns:dc="http://purl.org/dc/elements/1.1/"
   xmlns:cc="http://creativecommons.org/ns#"
   xmlns:rdf="http://www.w3.org/1999/02/22-rdf-syntax-ns#"
   xmlns:svg="http://www.w3.org/2000/svg"
   xmlns="http://www.w3.org/2000/svg"
   xmlns:sodipodi="http://sodipodi.sourceforge.net/DTD/sodipodi-0.dtd"
   xmlns:inkscape="http://www.inkscape.org/namespaces/inkscape"
   width="2040"
   height="253"
   version="1.1"
   id="svg4"
   sodipodi:docname="illustration-section-03.svg"
   inkscape:version="0.92.5 (2060ec1f9f, 2020-04-08)">
  <metadata
     id="metadata10">
    <rdf:RDF>
      <cc:Work
         rdf:about="">
        <dc:format>image/svg+xml</dc:format>
        <dc:type
           rdf:resource="http://purl.org/dc/dcmitype/StillImage" />
      </cc:Work>
    </rdf:RDF>
  </metadata>
  <defs
     id="defs8" />
  <sodipodi:namedview
     pagecolor="#ffffff"
     bordercolor="#666666"
     borderopacity="1"
     objecttolerance="10"
     gridtolerance="10"
     guidetolerance="10"
     inkscape:pageopacity="0"
     inkscape:pageshadow="2"
     inkscape:window-width="736"
     inkscape:window-height="480"
     id="namedview6"
     showgrid="false"
     inkscape:zoom="0.13627451"
     inkscape:cx="920.9152"
     inkscape:cy="126.5"
     inkscape:window-x="649"
     inkscape:window-y="369"
     inkscape:window-maximized="0"
     inkscape:current-layer="svg4" />
  <path
     d="m 932.42123,229.11553 8.29583,-3.59983 -77.97916,-24.3544 a 7233.6378,4656.2028 0 0 1 -23.09633,-7.29966 c -7.41685,-2.36399 -15.32231,-4.95789 -22.8892,-7.90903 a 123.35923,79.404805 0 0 1 -21.22021,-10.52856 c -6.17009,-3.81863 -12.32689,-8.29021 -18.825,-13.66603 -3.76685,-3.11609 -7.54432,-6.35269 -11.19963,-9.48331 a 1926.4942,1240.0604 0 0 0 -6.49804,-5.54504 c -6.52327,-5.52709 -12.58315,-10.02175 -18.52221,-13.74294 a 93.355911,60.09204 0 0 0 -7.20308,-4.06989 c -0.16464,-0.0829 -0.3253,-0.17093 -0.48994,-0.25384 -0.24166,-0.12136 -0.48596,-0.23161 -0.72894,-0.35041 a 78.952405,50.820682 0 0 0 -10.07768,-4.22202 c -0.55102,-0.19144 -1.10602,-0.36921 -1.65969,-0.5504 -0.33991,-0.11111 -0.67716,-0.22991 -1.01839,-0.33674 l -0.11153,-0.035 c -7.42615,-2.31874 -15.90919,-3.89387 -25.21012,-4.68358 a 151.31117,97.397119 0 0 0 -9.74043,-0.61279 c -0.53641,-0.0214 -1.09141,-0.0376 -1.63579,-0.059 -0.61077,-0.0222 -1.21225,-0.0479 -1.83496,-0.0667 -0.5882,-0.0171 -1.19631,-0.0291 -1.79646,-0.0427 -0.59749,-0.0154 -1.18834,-0.0333 -1.79911,-0.0444 -0.66653,-0.012 -1.35564,-0.0188 -2.03678,-0.0273 -0.56297,-0.007 -1.11531,-0.0171 -1.68625,-0.0231 -0.66255,-0.004 -1.35033,-0.003 -2.02616,-0.006 -0.61076,0 -1.20958,-0.006 -1.8323,-0.004 -1.30917,0.003 -2.64091,0.0103 -3.99655,0.0256 -0.37575,0.005 -0.75416,0.0111 -1.12859,0.0145 -3.01135,0.0367 -6.02536,0.0769 -9.04203,0.12136 -6.3095,0.0889 -12.83011,0.18204 -19.20069,0.20084 h -0.15003 c -0.55766,0.002 -1.09806,-0.002 -1.64775,-0.003 -4.71487,-0.005 -9.18277,-0.0855 -13.42628,-0.25554 -0.85906,-0.0342 -1.70085,-0.0743 -2.54132,-0.11538 -0.31867,-0.0154 -0.64529,-0.0273 -0.9613,-0.0436 -3.46146,-0.17948 -6.78351,-0.41878 -9.99403,-0.71535 a 124.25812,79.98341 0 0 1 -26.20062,-4.36297 c -7.84041,-1.92298 -15.30505,-4.11262 -24.10277,-6.80737 a 8176.0451,5262.8186 0 0 1 -23.50528,-7.256065 l -76.14287,-23.78093 0.69574,6.408245 73.99058,23.10148 c 7.05039,2.18109 14.10078,4.36475 21.17241,6.53473 7.50714,2.30331 15.59185,4.73055 23.83987,6.87318 8.3277,2.1452 16.82667,3.7682 25.25527,4.82456 8.4047,1.0444 17.42017,1.66744 27.56688,1.90589 7.93734,0.1829 16.13491,0.22051 24.06029,0.2564 l 4.93261,0.0239 c 10.97126,0.0573 20.29211,0.46152 28.49366,1.23926 9.51073,0.89739 18.22612,2.57082 25.90587,4.969 l 0.14472,0.0453 c 7.62531,2.39391 14.99967,5.74076 21.92127,9.94911 6.00544,3.65196 12.23661,8.08936 19.05065,13.56602 l 3.34861,2.69646 c 4.8171,3.88016 9.79619,7.8945 14.78191,11.69432 6.5007,4.95703 12.76645,9.10897 19.15296,12.69684 a 135.46439,87.196745 0 0 0 10.14938,5.15189 c 2.90247,1.33327 5.9271,2.58962 9.01812,3.79384 0.68512,0.26665 1.35033,0.54698 2.04475,0.8068 7.59477,2.82636 15.44845,5.38265 22.80156,7.72271 7.34383,2.33322 14.68499,4.64765 22.00625,6.95523 l 1.07548,0.34015 5.78371,1.8059 z m -10.83449,4.70662 8.2945,-3.59898 -72.0733,-22.50919 v -0.002 l -1.08212,-0.34187 c -7.32391,-2.30929 -14.66508,-4.62371 -22.01421,-6.95779 -7.36108,-2.34091 -15.23601,-4.90318 -22.95957,-7.77741 -0.48331,-0.18119 -0.95599,-0.36921 -1.43663,-0.55296 a 145.44116,93.618665 0 0 1 -9.83868,-4.13656 137.42682,88.459933 0 0 1 -10.34854,-5.25189 c -6.49273,-3.6494 -12.84877,-7.86288 -19.43577,-12.8823 -5.00564,-3.8152 -9.99403,-7.83553 -14.81644,-11.72167 l -3.35922,-2.705 c -6.72244,-5.40487 -12.87128,-9.78501 -18.79971,-13.39253 a 102.83078,66.190897 0 0 0 -2.54399,-1.49566 c -5.79565,-3.29044 -11.88342,-5.95869 -18.13715,-7.96543 -0.239,-0.0769 -0.47534,-0.16068 -0.71434,-0.23503 -7.43543,-2.32041 -15.89059,-3.93999 -25.13178,-4.81516 -8.0794,-0.76492 -17.28075,-1.16405 -28.12985,-1.22131 l -4.86623,-0.0222 c -7.96654,-0.0367 -16.20262,-0.0744 -24.1997,-0.25982 -10.28348,-0.23931 -19.43438,-0.87175 -27.97584,-1.93495 -8.59855,-1.07773 -17.25685,-2.73235 -25.73989,-4.91687 a 285.62705,183.85458 0 0 1 -6.20062,-1.66829 c -5.92313,-1.64266 -11.68692,-3.37848 -17.16259,-5.05618 -0.20713,-0.0632 -0.42488,-0.12819 -0.63068,-0.19229 -6.90832,-2.12127 -13.79938,-4.25279 -20.68247,-6.38175 l -0.61608,-0.19145 c -0.43551,-0.13503 -0.87367,-0.26922 -1.30651,-0.40511 l -0.96794,-0.29913 -7.72754,-2.41185 -0.17261,-0.0547 -31.48112,-9.832015 -30.84246,-9.633734 0.69574,6.409955 46.79148,14.614694 19.66275,6.13903 6.78484,2.10075 c 3.23575,0.99996 6.47547,2.00162 9.71653,3.00072 2.11379,0.65125 4.22757,1.30592 6.34269,1.95546 7.44872,2.28707 15.4843,4.71687 23.78411,6.98258 8.42727,2.2922 16.56775,4.05109 24.88349,5.37838 8.36221,1.32301 17.39627,2.28536 26.85123,2.85627 9.42043,0.56921 19.00816,0.88543 28.28254,1.1914 11.05756,0.36751 19.95486,0.95893 27.99974,1.86402 9.37928,1.05636 18.0243,2.80499 25.69342,5.19633 l 0.1766,0.0556 c 7.60539,2.38792 15.01692,5.64759 22.03678,9.69185 6.08776,3.50752 12.28706,7.61844 19.50873,12.93785 6.11033,4.50064 12.4278,9.15598 18.79838,13.48141 6.48875,4.40407 13.1754,8.35858 19.87658,11.74988 6.59099,3.32463 13.88037,6.42448 21.66501,9.20982 0.38771,0.1376 0.77674,0.27349 1.16445,0.41024 a 431.50106,277.75187 0 0 0 6.83794,2.35459 c 0.52845,0.17948 1.05822,0.35554 1.58667,0.53245 a 592.49688,381.38288 0 0 0 5.25394,1.7324 972.49292,625.98161 0 0 0 8.06745,2.59047 c 7.69966,2.44433 15.39268,4.86644 23.06313,7.28257 z m -10.84512,4.70918 8.2945,-3.60069 -66.17275,-20.66654 a 7564.9955,4869.4936 0 0 1 -23.10031,-7.29453 893.43031,575.08999 0 0 1 -8.09401,-2.60244 l -0.30936,-0.10085 a 585.62574,376.96001 0 0 1 -4.98042,-1.64266 l -1.57737,-0.52989 a 396.79349,255.41104 0 0 1 -6.8831,-2.36997 c -0.39301,-0.13846 -0.7847,-0.27008 -1.17904,-0.41024 -7.91343,-2.8332 -15.32232,-5.98262 -22.0182,-9.36195 -6.7995,-3.44258 -13.58301,-7.45179 -20.16072,-11.91824 -6.40908,-4.35023 -12.74514,-9.01838 -18.87274,-13.5327 -7.14731,-5.26556 -13.27358,-9.32862 -19.27903,-12.78829 -6.89238,-3.96904 -14.19637,-7.1706 -21.59994,-9.48245 -7.44872,-2.32297 -15.8574,-4.02204 -24.99237,-5.05105 -7.94132,-0.89397 -16.7377,-1.47856 -27.68108,-1.84008 -9.31421,-0.30768 -18.94709,-0.62647 -28.39408,-1.19824 -9.59304,-0.5786 -18.75722,-1.55462 -27.23893,-2.89815 -8.44719,-1.34695 -16.71778,-3.13404 -25.28314,-5.46299 -8.3901,-2.2922 -16.44162,-4.72628 -23.89166,-7.0142 -7.13802,-2.19477 -14.25745,-4.39894 -21.37025,-6.60055 l -2.18947,-0.6786 -64.38824,-20.110159 0.69575,6.409954 83.41898,26.052615 4.74274,1.41789 c 6.21789,1.85974 12.64822,3.78443 19.02809,5.60657 8.51888,2.41783 16.54783,4.34253 24.54491,5.88605 8.21085,1.57428 17.00458,2.86653 26.13291,3.84255 9.16551,0.9709 18.59125,1.68796 27.41021,2.31869 10.92478,0.78116 19.60831,1.64266 27.3332,2.71099 9.21464,1.2743 17.76008,3.12806 25.39999,5.5117 l 0.17792,0.0556 c 7.57485,2.37852 15.05411,5.52367 22.23727,9.34998 6.09839,3.24942 12.4942,7.08941 20.12614,12.08234 7.20972,4.71089 13.30678,8.61498 19.63885,12.35241 6.77156,3.99126 13.71573,7.61673 20.63607,10.77727 6.74898,3.07421 13.97198,5.92793 22.08723,8.7201 8.27724,2.82893 16.64476,5.50572 23.00737,7.52358 7.29603,2.31186 14.58674,4.60662 21.85753,6.8954 l 1.23482,0.38887 z M 538.57131,91.837387 456.66332,66.254832 l 0.69309,6.397989 77.4547,24.190313 a 6624.4218,4264.058 0 0 0 23.54113,7.270596 c 8.76053,2.68534 16.17738,4.8596 23.90493,6.75353 a 121.669,78.316822 0 0 0 25.63898,4.26903 c 8.42728,0.78116 17.64456,1.14524 28.175,1.11533 0.4209,0 0.84977,-0.007 1.27067,-0.008 2.78829,-0.012 5.59384,-0.0316 8.4047,-0.0641 1.01308,-0.012 2.00889,-0.0273 3.02064,-0.041 2.23196,-0.0291 4.47056,-0.0573 6.66534,-0.0889 3.37782,-0.0479 6.7543,-0.0966 10.12282,-0.13333 10.99383,-0.12307 20.41028,0.16239 28.78444,0.87518 9.58242,0.81192 18.33765,2.44091 26.02404,4.83994 l 0.14871,0.047 c 7.62929,2.39476 14.97444,5.78605 21.82965,10.08329 6.03731,3.78102 12.18084,8.33892 18.78643,13.93438 2.14565,1.81701 4.27936,3.64599 6.41306,5.4741 3.68054,3.15028 7.48324,6.4074 11.26602,9.53887 6.42641,5.31855 12.5009,9.7286 18.56874,13.48398 a 120.83915,77.782659 0 0 0 20.76081,10.29952 c 7.49253,2.92464 15.33161,5.49546 22.68738,7.83723 a 7227.3416,4652.15 0 0 0 23.05384,7.28598 l 79.38791,24.79456 8.28653,-3.59812 -83.88103,-26.1962 -1.0808,-0.34015 c -7.32391,-2.3093 -14.6664,-4.62372 -22.01686,-6.95694 -7.40889,-2.35716 -15.29974,-4.96131 -22.82813,-8.03381 -7.45933,-3.06567 -14.47387,-6.78088 -20.85109,-11.04563 -5.92578,-3.96392 -11.94052,-8.61498 -18.38412,-14.21814 a 1593.907,1025.9781 0 0 1 -8.02636,-7.06035 1370.6009,882.23876 0 0 0 -9.42309,-8.27311 c -6.38385,-5.52111 -12.41452,-10.04825 -18.43723,-13.84038 -6.64542,-4.18527 -13.75158,-7.47828 -21.12195,-9.7927 l -0.14473,-0.0453 c -7.42614,-2.31869 -15.91317,-3.887 -25.22472,-4.66217 -8.35823,-0.69655 -17.66846,-0.94355 -28.45914,-0.75467 -5.10921,0.0872 -10.24232,0.21196 -15.37543,0.33588 -4.7932,0.11624 -9.59171,0.23247 -14.36367,0.31965 -10.91416,0.19828 -20.39169,0.0137 -28.97962,-0.56408 -9.18144,-0.61963 -18.13318,-1.91786 -26.60825,-3.85965 -7.85235,-1.82299 -15.35285,-4.00237 -24.1997,-6.714211 v 0 C 556.02999,97.23115 549.92762,95.344914 543.8279,93.460388 l -5.25526,-1.623855 z m -77.12939,-32.180534 -5.26854,2.287071 0.25227,2.326386 84.40152,26.356023 c 7.47527,2.314421 14.96382,4.632261 22.46963,6.93728 8.74726,2.683637 16.1681,4.839947 23.95539,6.647547 8.25865,1.89479 17.00325,3.16225 25.98818,3.76906 8.46844,0.57005 17.83178,0.7521 28.62644,0.55553 4.76399,-0.0872 9.55188,-0.2017 14.33978,-0.31794 5.14373,-0.12478 10.28613,-0.24956 15.4033,-0.33844 10.9301,-0.18974 20.37576,0.0615 28.87075,0.77005 9.59039,0.79739 18.35225,2.41868 26.04395,4.81772 l 0.13145,0.041 c 7.6346,2.39732 14.97842,5.79972 21.83363,10.11406 6.11432,3.84939 12.23395,8.44319 18.71208,14.04207 3.16537,2.73491 6.34667,5.55187 9.42707,8.27653 2.66879,2.36228 5.33765,4.72627 8.02503,7.06121 6.38518,5.54931 12.32424,10.14482 18.16371,14.04891 6.23117,4.16732 13.08372,7.79707 20.36381,10.78838 7.38233,3.01439 15.21476,5.59888 22.57718,7.94321 a 9812.516,6316.1946 0 0 0 23.0857,7.29368 l 85.26324,26.62695 1.91861,-0.8333 -0.53509,-4.92028 -82.88522,-25.88596 -1.86815,-0.58886 c -7.06367,-2.22383 -14.14725,-4.45278 -21.23084,-6.7031 -7.45933,-2.37083 -15.3794,-4.99635 -22.77766,-8.13808 -7.22566,-3.09216 -14.14062,-6.94241 -20.55501,-11.4439 -5.7213,-4.01776 -11.6577,-8.76369 -18.14247,-14.51043 -1.68492,-1.49309 -3.36453,-2.99131 -5.04547,-4.49124 -4.02716,-3.59471 -8.19233,-7.31077 -12.35618,-10.87983 -6.35995,-5.45445 -12.4185,-9.94313 -18.5222,-13.72244 -6.67995,-4.13485 -13.80735,-7.40563 -21.18569,-9.72176 l -0.14871,-0.047 c -7.43677,-2.32126 -15.90918,-3.9152 -25.17825,-4.73653 -8.42329,-0.74526 -17.70166,-1.03072 -28.36886,-0.8709 -6.74766,0.10256 -13.67855,0.28631 -20.38106,0.46579 -3.1282,0.0838 -6.25639,0.16666 -9.37928,0.24272 -11.10801,0.26837 -20.65591,0.18547 -29.19073,-0.25383 -9.52931,-0.48972 -18.58461,-1.65633 -26.91629,-3.469068 -8.76187,-1.921277 -17.13337,-4.428851 -24.28998,-6.627893 -6.50203,-1.999051 -12.98546,-4.005794 -19.46093,-6.011682 l -4.09746,-1.268316 z m 10.85839,-4.705761 -8.29316,3.59983 84.36035,26.338075 a 8768.3999,5644.1101 0 0 0 19.85528,6.133899 h -10e-4 c 7.09022,2.17853 15.37941,4.660464 24.00319,6.550973 8.11923,1.767438 16.95944,2.905851 26.27232,3.385311 8.43259,0.43417 17.87958,0.51622 28.87872,0.24785 3.11491,-0.0752 6.23514,-0.15811 9.35404,-0.24101 6.71845,-0.17948 13.66793,-0.3658 20.44746,-0.4675 10.81192,-0.16239 20.2297,0.1282 28.78975,0.88543 9.54657,0.84696 18.28587,2.49304 25.97623,4.89293 l 0.16465,0.0513 c 7.62929,2.39561 14.97975,5.76639 21.85089,10.0226 6.20195,3.8417 12.35345,8.3979 18.80502,13.9267 4.17447,3.57932 8.34236,7.29794 12.36945,10.8935 1.68625,1.50335 3.37117,3.00584 5.05875,4.5015 6.42103,5.68947 12.29238,10.38669 17.94862,14.3583 6.26701,4.4015 13.01998,8.162 20.06639,11.17639 7.28407,3.09387 15.10987,5.68691 22.48423,8.02868 a 8311.6383,5350.0983 0 0 0 23.06314,7.28086 l 81.53091,25.46375 -0.69442,-6.4091 -77.03645,-24.05869 a 9260.9592,5961.1643 0 0 1 -23.10695,-7.28513 c -8.68353,-2.752 -15.87201,-5.20146 -22.73651,-8.2167 -7.05836,-3.11097 -13.91224,-7.03899 -20.3731,-11.67467 -0.32265,-0.23247 -0.64928,-0.47348 -0.97192,-0.70937 -5.34555,-3.88699 -10.81325,-8.31242 -17.11346,-13.85917 l -2.32092,-2.04606 c -4.94324,-4.35877 -10.05377,-8.86368 -15.19624,-13.14724 -6.3812,-5.31428 -12.50747,-9.71322 -18.72668,-13.44638 -6.71845,-4.03314 -13.88037,-7.25692 -21.29589,-9.58502 l -0.15934,-0.0504 c -7.47261,-2.330656 -15.91316,-3.972459 -25.09327,-4.880108 -8.44055,-0.83244 -17.64987,-1.206781 -28.15509,-1.141827 -8.23607,0.05128 -16.72442,0.246143 -24.93261,0.434168 l -4.68831,0.106832 c -11.40278,0.254689 -20.68911,0.196572 -29.22791,-0.180333 -9.72317,-0.430749 -18.83556,-1.518732 -27.0889,-3.234036 -8.69681,-1.823845 -16.80011,-4.247663 -24.35106,-6.572339 A 8616.2085,5546.1463 0 0 1 548.46177,78.73715 L 472.30164,54.951092 Z m 10.82919,-4.711744 -8.29051,3.601539 74.77262,23.353601 c 7.83377,2.430654 15.67948,4.863018 23.54511,7.285126 7.47527,2.301601 15.48696,4.698924 24.02709,6.488583 8.05152,1.672571 16.95015,2.73406 26.45025,3.153698 8.47241,0.375196 17.67244,0.432458 28.95306,0.178624 l 4.68698,-0.106833 c 8.22546,-0.18888 16.73239,-0.384597 25.00166,-0.435876 10.65127,-0.06495 20.00001,0.315369 28.58395,1.162338 9.44035,0.934144 18.13716,2.626372 25.84877,5.031387 l 0.16464,0.05128 c 7.64788,2.40159 15.03154,5.7228 21.94251,9.87218 6.33075,3.79811 12.55129,8.26457 19.01747,13.65149 v 0.003 c 5.16636,4.30236 10.28752,8.81924 15.24138,13.18741 l 2.32092,2.04435 c 6.3188,5.56213 11.79181,9.98756 17.15064,13.87456 0.25227,0.1846 0.5072,0.37348 0.7608,0.55553 6.30817,4.52799 13.0014,8.36541 19.89644,11.40544 6.73438,2.95884 13.82991,5.37582 22.41121,8.09535 7.71293,2.44262 15.41525,4.86558 23.095,7.28171 l 75.65957,23.6288 -0.69575,-6.40483 -71.18901,-22.23399 -1.37024,-0.43075 a 10532.63,6779.7232 0 0 1 -21.7407,-6.84584 c -7.05835,-2.23066 -15.21742,-4.89207 -22.72588,-8.25089 -6.97072,-3.1178 -13.80602,-7.06206 -20.32132,-11.72594 -5.57658,-3.99468 -11.35099,-8.57823 -18.17168,-14.42667 -5.74919,-4.92883 -11.69488,-10.02517 -17.7614,-14.86255 -6.43969,-5.13651 -12.65758,-9.41238 -19.01089,-13.07545 -6.83264,-3.93999 -14.15123,-7.136417 -21.61057,-9.466222 -7.50979,-2.343479 -15.91715,-4.046818 -24.98307,-5.063009 -8.43392,-0.9444 -17.55162,-1.440958 -27.87228,-1.516168 -9.41379,-0.07008 -19.15156,0.06837 -28.57067,0.202555 l -0.79134,0.01111 c -11.46253,0.16495 -20.71301,0.06581 -29.1124,-0.311096 -9.82009,-0.441005 -18.94576,-1.509331 -27.12209,-3.176774 -8.78975,-1.790514 -17.0869,-4.290396 -24.40815,-6.496275 L 483.1295,50.240202 Z m 10.85043,-4.704052 -8.29317,3.598121 92.36939,28.849068 c 7.24025,2.179384 15.46571,4.6579 24.06957,6.410809 7.99177,1.627273 16.90899,2.670814 26.50336,3.100708 8.31707,0.372632 17.49054,0.470064 28.87074,0.307678 l 0.79134,-0.01111 c 9.44036,-0.134181 19.19937,-0.273491 28.65964,-0.203409 10.46405,0.07692 19.72117,0.581169 28.29715,1.540953 9.31023,1.043541 17.95127,2.79645 25.68678,5.208302 7.68373,2.421253 15.2068,5.685204 22.224,9.732024 6.45953,3.72375 12.77435,8.06628 19.30299,13.27544 6.05723,4.82627 12.0255,9.94141 17.79725,14.88904 6.81671,5.84417 12.54465,10.39011 18.04555,14.32838 6.38253,4.57073 13.06645,8.42781 19.86191,11.46613 7.3425,3.28532 15.40198,5.91425 22.382,8.12184 7.71161,2.43664 15.41526,4.85704 23.095,7.2706 l 69.8201,21.80581 -0.69708,-6.40654 -88.48171,-27.63203 c -8.22678,-2.64859 -15.6038,-5.09378 -22.71792,-8.26628 -6.92691,-3.08788 -13.78876,-6.99539 -20.39302,-11.61483 a 270.50257,174.11914 0 0 1 -5.88727,-4.26903 c -3.71507,-2.77936 -7.6824,-5.90571 -12.12242,-9.54827 -0.12747,-0.10598 -0.24962,-0.20341 -0.37841,-0.30853 -0.13942,-0.11624 -0.2868,-0.23589 -0.42754,-0.35041 -1.33971,-1.10166 -2.6741,-2.19819 -4.00983,-3.28703 -1.02237,-0.83329 -2.06599,-1.67257 -3.10562,-2.51185 -0.44082,-0.35554 -0.8803,-0.71535 -1.32245,-1.07003 a 506.02406,325.7214 0 0 0 -9.21994,-7.20479 c -6.53794,-4.94592 -12.86072,-9.08248 -19.33221,-12.65154 -6.90035,-3.804094 -14.19372,-6.907367 -21.78052,-9.285887 -7.54564,-2.353735 -15.91051,-4.123737 -24.86357,-5.257872 -8.38877,-1.064907 -17.40158,-1.699065 -27.55361,-1.943498 -9.4377,-0.226485 -19.11439,-0.233322 -29.02477,-0.221357 -11.51829,0.01453 -20.69574,-0.17777 -28.88136,-0.604245 -9.80018,-0.510233 -18.89398,-1.612745 -27.02782,-3.279333 -8.77249,-1.796496 -17.06699,-4.312617 -24.38558,-6.532171 z m 10.82786,-4.70918 -8.28919,3.598121 86.47149,27.007274 c 7.22565,2.193914 15.42854,4.68354 24.04568,6.449269 7.93866,1.62471 16.83463,2.703291 26.44095,3.203268 8.11126,0.423057 17.21702,0.612792 28.65963,0.599117 9.93959,-0.01282 19.64416,-0.0051 29.12833,0.223921 10.29941,0.246142 19.44632,0.891411 27.96787,1.971702 9.1748,1.164902 17.75875,2.980201 25.51019,5.398891 l 0.19916,0.06154 c 7.6824,2.412707 15.13378,5.596318 22.14964,9.464512 6.58169,3.628039 13.00279,7.828689 19.6283,12.841279 0.81922,0.62048 1.63314,1.25891 2.45237,1.8888 5.33492,4.11433 10.55301,8.35858 15.48164,12.40966 l 0.22041,0.17948 c 0.13676,0.11196 0.2682,0.21709 0.40231,0.3299 a 458.06283,294.84935 0 0 0 9.99668,7.93723 275.5361,177.35916 0 0 0 7.85235,5.75443 c 6.46751,4.52543 13.17932,8.35004 19.94822,11.3687 6.95878,3.10242 14.25347,5.52025 22.38067,8.13722 l 87.09554,27.19957 -0.69575,-6.40739 -82.63161,-25.80476 c -7.90547,-2.52809 -15.58654,-5.05276 -22.76971,-8.18167 -7.0318,-3.06225 -13.7622,-6.7766 -20.57757,-11.35245 -5.5872,-3.75453 -11.35498,-7.98083 -18.70146,-13.70363 -6.7782,-5.28009 -12.51145,-9.66877 -18.46511,-13.919 -6.65339,-4.7502 -13.09042,-8.744033 -19.67344,-12.210536 -6.90699,-3.63829 -14.21762,-6.679173 -21.73538,-9.039745 l -0.21244,-0.06666 c -7.59212,-2.367409 -15.91848,-4.20322 -24.74939,-5.454443 -8.33433,-1.183705 -17.24092,-1.964865 -27.223,-2.388777 -9.77494,-0.415365 -19.90706,-0.593989 -28.6344,-0.729025 -11.60991,-0.179479 -20.41559,-0.496558 -28.55474,-1.025593 -9.87586,-0.642705 -18.65233,-1.797351 -26.82733,-3.529748 -8.69149,-1.843503 -16.9913,-4.375862 -24.31255,-6.608236 z m 10.84777,-4.702342 -8.28919,3.598121 80.56165,25.159498 c 7.23362,2.208443 15.44314,4.714307 23.9992,6.528752 7.99576,1.693937 16.58634,2.823798 26.26303,3.452829 8.03957,0.523052 16.78285,0.837567 28.35027,1.017046 8.77116,0.135891 18.94709,0.314515 28.74593,0.732444 10.11751,0.429039 19.15157,1.222164 27.61867,2.423817 9.03672,1.281991 17.55959,3.16139 25.33626,5.586916 l 0.21908,0.06837 c 7.70364,2.41869 15.18954,5.531363 22.2532,9.252556 6.68791,3.522056 13.21789,7.574857 19.96422,12.389157 a 442.43115,284.78743 0 0 1 7.90281,5.80571 c 0.35318,0.26495 0.70371,0.52562 1.05689,0.79398 0.14606,0.11025 0.29344,0.22392 0.43949,0.33332 a 1075.3303,692.17678 0 0 1 9.14161,7.0424 c 7.30266,5.68948 13.03193,9.88672 18.57133,13.60877 6.57638,4.41688 13.35591,8.15859 20.14739,11.11999 7.0318,3.06481 14.63188,5.56213 22.45236,8.06286 l 81.25341,25.37488 -0.69707,-6.40654 -76.78684,-23.98178 c -7.40489,-2.35031 -15.2692,-4.88865 -22.94762,-7.83381 a 166.90966,107.43767 0 0 1 -20.74487,-11.19264 299.84202,193.00458 0 0 1 -8.82693,-5.86297 c -0.34787,-0.23931 -0.71035,-0.49485 -1.06486,-0.74099 -0.44214,-0.30768 -0.87632,-0.60852 -1.33174,-0.92731 l -0.12215,-0.0872 a 597.84509,384.82545 0 0 1 -7.74746,-5.5647 c -5.97491,-4.3733 -12.39461,-9.01838 -18.87805,-13.37202 -6.78484,-4.555338 -13.33074,-8.406439 -20.01467,-11.770383 -0.794,-0.399126 -1.59331,-0.790561 -2.3966,-1.176013 -0.081,-0.03931 -0.16066,-0.08034 -0.24298,-0.117943 -0.16464,-0.07948 -0.33194,-0.153839 -0.49526,-0.231613 A 125.00432,80.463729 0 0 0 750.5052,81.842134 l -0.13543,-0.04188 c -7.61734,-2.376811 -15.90652,-4.275012 -24.63785,-5.641614 -8.27591,-1.29652 -17.0723,-2.223827 -26.89505,-2.835764 -9.7298,-0.606809 -19.66806,-0.977731 -28.21881,-1.278572 -11.47979,-0.404254 -20.16199,-0.8803 -28.15774,-1.544372 a 164.58343,105.94031 0 0 1 -26.63746,-3.686151 l -0.0531,-0.01367 -0.0491,-0.01111 c -0.0996,-0.02649 -0.19916,-0.0547 -0.30007,-0.08034 -7.93202,-2.022982 -15.43119,-4.290396 -23.70311,-6.830447 l -76.06059,-23.75444 z m 10.83715,-4.706616 -8.28919,3.598976 74.66774,23.320268 c 8.29317,2.548598 15.81225,4.824559 23.77481,6.84925 a 161.77655,104.13355 0 0 0 26.15416,3.616923 c 7.88687,0.655525 16.51198,1.129007 27.96255,1.532407 10.60081,0.372632 19.47421,0.733299 28.32902,1.2837 9.9449,0.618774 18.86345,1.559756 27.26549,2.875933 8.9119,1.394806 17.38034,3.334885 25.16896,5.76554 0.085,0.02564 0.16862,0.05128 0.2536,0.07863 7.70365,2.418689 15.21609,5.461281 22.33553,9.047437 6.79818,3.42377 13.43696,7.327005 20.29615,11.933628 6.52991,4.38612 12.96953,9.04316 18.95639,13.42501 7.50714,5.49632 13.35723,9.53544 18.96169,13.09767 a 165.22473,106.35311 0 0 0 20.32796,10.97811 c 7.50714,2.87423 15.317,5.39548 22.66481,7.7287 l 75.40995,23.55103 -0.69575,-6.40996 -70.94204,-22.15451 -0.001,-8.5e-4 c -7.03578,-2.22041 -15.19087,-4.82884 -23.01003,-7.71759 a 175.02756,112.66307 0 0 1 -21.10502,-10.68497 c -5.81292,-3.44684 -11.83961,-7.33298 -19.5406,-12.59428 -6.12627,-4.18527 -12.70398,-8.63207 -19.31355,-12.800246 -6.91097,-4.35706 -13.56967,-8.067141 -20.35856,-11.341346 -0.13676,-0.06581 -0.27352,-0.128199 -0.40895,-0.193153 a 142.29836,91.595683 0 0 0 -21.84824,-8.580792 l -0.14074,-0.04188 a 134.72483,86.720699 0 0 0 -17.99376,-4.577562 143.14015,92.137538 0 0 0 -6.40245,-1.196525 c -8.21616,-1.404207 -16.90898,-2.475951 -26.57372,-3.276768 -0.5311,-0.04444 -1.06619,-0.08547 -1.59995,-0.128199 -0.59218,-0.04701 -1.18569,-0.09572 -1.77919,-0.141874 l -1.33838,-0.10085 c -0.73691,-0.05555 -1.47381,-0.111106 -2.21072,-0.164949 l -1.13257,-0.08034 c -0.79267,-0.05641 -1.58402,-0.112815 -2.3727,-0.166658 l -1.30652,-0.08888 c -0.68778,-0.0453 -1.37423,-0.0923 -2.05935,-0.135891 l -1.98101,-0.127344 -1.29058,-0.0829 a 1917.4628,1234.247 0 0 0 -3.2769,-0.200845 1423.2624,916.13631 0 0 0 -7.43544,-0.435877 c -11.29921,-0.647832 -19.84333,-1.30763 -27.71029,-2.139215 a 172.62698,111.11784 0 0 1 -26.25108,-4.180145 h -10e-4 l -0.0876,-0.02137 a 322.17489,207.37997 0 0 1 -11.97769,-3.378474 l -0.0213,-0.0068 a 840.26162,540.86596 0 0 1 -11.91927,-3.622906 z m 10.83715,-4.706616 -8.28786,3.598122 68.76453,21.476765 c 3.8651,1.196525 7.69701,2.372538 11.53555,3.512655 l 0.41426,0.123071 c 1.90533,0.564076 3.81465,1.117896 5.72794,1.660605 l 0.14606,0.04102 c 1.95711,0.552965 3.92352,1.093966 5.90188,1.619582 a 170.20249,109.55723 0 0 0 25.79964,4.105789 c 7.80057,0.824748 16.28626,1.479418 27.5151,2.123832 a 2699.1491,1737.4087 0 0 1 7.2084,0.423057 l 1.21622,0.0735 a 1199.8646,772.33796 0 0 1 4.18244,0.261526 833.0134,536.20037 0 0 1 3.92883,0.258962 l 0.74221,0.04957 c 0.97856,0.06752 1.94782,0.135891 2.91177,0.205119 l 0.63467,0.04444 c 0.88429,0.06495 1.76459,0.130763 2.63958,0.197427 l 0.98387,0.07435 c 0.69043,0.05384 1.37688,0.109397 2.06334,0.164095 l 1.37555,0.109397 c 9.80017,0.811927 18.60453,1.897346 26.91762,3.319501 2.20009,0.376051 4.37495,0.783724 6.52194,1.219601 a 136.94484,88.149692 0 0 1 18.3496,4.669865 l 0.14074,0.04188 v 0 c 7.70497,2.386212 15.25858,5.376669 22.45104,8.831207 0.0797,0.03932 0.16199,0.07521 0.24032,0.11367 0.57492,0.277765 1.14719,0.577751 1.72078,0.861498 6.28965,3.11011 12.49425,6.584305 18.90466,10.62685 6.6441,4.189542 13.24703,8.651732 19.38924,12.848962 7.6824,5.24847 13.66925,9.10641 19.40649,12.50882 a 168.94378,108.74701 0 0 0 9.98606,5.47325 c 1.191,0.60253 2.41386,1.18455 3.63009,1.76914 0.55234,0.26495 1.08876,0.54015 1.64642,0.80167 0.3638,0.16923 0.74354,0.32905 1.10867,0.49827 1.43132,0.6598 2.87061,1.31618 4.33513,1.94948 7.66912,2.83064 15.77773,5.42453 22.77236,7.63212 l 2.37535,0.74099 67.18716,20.98363 -0.69708,-6.40996 -65.09195,-20.32981 c -7.45934,-2.32724 -15.42057,-4.85618 -23.09633,-7.56887 -7.32656,-2.96653 -14.56682,-6.3074 -21.59198,-9.95509 -6.25241,-3.60409 -12.75974,-7.56117 -19.93892,-12.12591 -6.21922,-3.95281 -12.86597,-8.153465 -19.75437,-12.227632 -7.04906,-4.171598 -13.81531,-7.744934 -20.68917,-10.923417 -7.22035,-3.337449 -14.71553,-6.245004 -22.4059,-8.623525 -7.65717,-2.389631 -15.87997,-4.402356 -24.43869,-5.982624 -8.16571,-1.508476 -16.75762,-2.720384 -26.26702,-3.703244 -9.2226,-0.955511 -18.56868,-1.726414 -27.35179,-2.435783 -10.04049,-0.808509 -18.97364,-1.666588 -27.31063,-2.620389 -8.9212,-1.335834 -17.5556,-2.978492 -25.73591,-4.888658 -8.23209,-2.288782 -16.30485,-4.788664 -23.87307,-7.153509 L 537.33119,26.711397 Z m 421.45133,193.024238 -1.9133,0.83073 -13.38379,5.81169 v 0 l -8.29848,3.60154 v 8.6e-4 l -11.75861,5.10488 -12.47029,5.41513 -63.03127,-19.68454 -1.24013,-0.38973 c -7.27212,-2.29049 -14.56549,-4.58525 -21.86417,-6.89796 -6.3812,-2.02298 -14.76997,-4.70747 -23.08173,-7.54836 -8.21748,-2.82722 -15.53475,-5.71768 -22.37409,-8.83463 -7.01056,-3.2007 -14.04103,-6.87147 -20.89358,-10.9106 -6.37457,-3.76221 -12.50084,-7.68339 -19.73977,-12.41394 -7.56821,-4.9519 -13.89895,-8.75343 -19.92564,-11.96525 -7.02118,-3.73999 -14.32252,-6.81164 -21.70883,-9.12948 l -0.1726,-0.0539 c -7.44872,-2.32382 -15.79234,-4.13314 -24.79852,-5.37838 -7.6346,-1.05636 -16.23714,-1.90931 -27.06898,-2.68363 -8.85614,-0.6333 -18.32039,-1.35378 -27.55095,-2.33237 -9.23853,-0.98713 -18.13982,-2.29562 -26.45821,-3.88956 -8.10729,-1.56488 -16.23847,-3.51436 -24.85959,-5.96211 v 0 c -6.40112,-1.82727 -12.84207,-3.75538 -19.07058,-5.61854 l -4.76266,-1.42386 -84.82242,-26.491064 -1.12461,-10.342248 0.0146,0.0043 -0.69707,-6.414227 -0.0133,-0.0043 -1.12063,-10.341393 0.0133,0.0034 -0.6984,-6.403117 -0.0212,-0.0068 -0.46471,-4.307489 7.80588,-3.391294 0.0133,0.0034 8.30645,-3.604958 -0.0133,-0.0026 13.38379,-5.815111 0.0133,0.0026 8.29449,-3.601539 -0.0133,-0.0034 13.38511,-5.810837 0.0133,0.0026 8.29317,-3.598976 h -0.001 l 10.8345,-4.704906 -10e-4,-8.55e-4 13.38379,-5.811692 65.62438,20.495615 c 7.54166,2.356299 15.58388,4.84678 23.69249,7.10223 8.00638,1.869997 16.54252,3.492997 25.29111,4.804047 8.2228,0.940126 17.11213,1.792223 27.10882,2.598168 8.80568,0.710223 18.17566,1.484545 27.44207,2.444329 9.61562,0.99397 18.30977,2.218699 26.57639,3.746832 8.70477,1.608471 17.07096,3.656238 24.8649,6.088602 l 0.35451,0.109396 c 7.66248,2.40587 15.21078,5.319408 22.44181,8.663695 6.96143,3.218651 13.81,6.833866 20.93873,11.053325 6.92026,4.093824 13.58693,8.305587 19.82208,12.269507 7.14997,4.54508 13.62544,8.48336 19.79287,12.04131 6.89106,3.57676 14.04767,6.87746 21.21755,9.78331 7.5576,2.6691 15.47766,5.18266 22.91045,7.50392 l 66.47547,20.7614 0.90951,8.37568 v 8.5e-4 l 1.12461,10.34226 0.91085,8.37824 v -0.002 l 0.69707,6.40996 v 8.5e-4 l 0.90818,8.3714 h 10e-4 l 0.90952,8.37909 v 0.002 l 1.12328,10.34139 -0.0133,-0.003 z"
     id="path2"
     inkscape:connector-curvature="0"
     style="fill:#25282c;fill-rule:evenodd;stroke-width:1.06526124" />
</svg>
