<?xml version="1.0" encoding="UTF-8" standalone="no"?>
<svg
   xmlns:dc="http://purl.org/dc/elements/1.1/"
   xmlns:cc="http://creativecommons.org/ns#"
   xmlns:rdf="http://www.w3.org/1999/02/22-rdf-syntax-ns#"
   xmlns:svg="http://www.w3.org/2000/svg"
   xmlns="http://www.w3.org/2000/svg"
   xmlns:sodipodi="http://sodipodi.sourceforge.net/DTD/sodipodi-0.dtd"
   xmlns:inkscape="http://www.inkscape.org/namespaces/inkscape"
   version="1.0"
   width="800pt"
   height="800pt"
   viewBox="0 0 800 800"
   preserveAspectRatio="xMidYMid meet"
   id="svg8"
   sodipodi:docname="safe-icon.svg"
   inkscape:version="0.92.5 (2060ec1f9f, 2020-04-08)">
  <metadata
     id="metadata14">
    <rdf:RDF>
      <cc:Work
         rdf:about="">
        <dc:format>image/svg+xml</dc:format>
        <dc:type
           rdf:resource="http://purl.org/dc/dcmitype/StillImage" />
      </cc:Work>
    </rdf:RDF>
  </metadata>
  <defs
     id="defs12" />
  <sodipodi:namedview
     pagecolor="#ffffff"
     bordercolor="#666666"
     borderopacity="1"
     objecttolerance="10"
     gridtolerance="10"
     guidetolerance="10"
     inkscape:pageopacity="0"
     inkscape:pageshadow="2"
     inkscape:window-width="793"
     inkscape:window-height="480"
     id="namedview10"
     showgrid="false"
     inkscape:zoom="0.18061224"
     inkscape:cx="558.66667"
     inkscape:cy="653.46667"
     inkscape:window-x="436"
     inkscape:window-y="117"
     inkscape:window-maximized="0"
     inkscape:current-layer="svg8" />
  <g
     transform="matrix(0.05787994,0,0,-0.05127617,156.96796,703.32837)"
     id="g6"
     style="fill:#000000;stroke:none">
    <path
       d="M 0,7338 C 0,5983 5,4799 10,4705 21,4496 41,4358 86,4172 358,3059 1334,1894 2931,777 3257,549 3700,271 4043,81 l 147,-82 158,87 c 1260,700 2439,1651 3133,2529 485,612 773,1217 864,1812 31,203 35,471 35,2911 V 9800 H 4190 0 Z m 4355,1132 c 264,-31 510,-120 724,-265 286,-193 514,-497 619,-825 70,-221 82,-343 82,-856 v -404 h 68 c 145,0 315,-67 416,-164 66,-64 126,-155 158,-239 l 23,-62 3,-1100 c 2,-777 0,-1118 -8,-1160 -6,-33 -30,-98 -53,-145 -75,-153 -216,-267 -382,-310 -77,-20 -112,-20 -1815,-20 -1698,0 -1739,0 -1814,20 -43,11 -99,31 -126,46 -134,73 -249,209 -292,347 l -23,72 v 1115 1115 l 24,73 c 44,133 137,248 263,325 84,51 174,77 286,84 l 92,6 v 381 c 1,537 16,689 92,905 244,697 943,1143 1663,1061 z"
       id="path2"
       inkscape:connector-curvature="0" />
    <path
       d="m 3997,7661 c -300,-81 -519,-312 -581,-613 -13,-63 -16,-153 -16,-503 v -425 h 791 790 l -3,463 c -3,453 -4,463 -27,532 -92,277 -300,477 -566,545 -104,27 -290,27 -388,1 z"
       id="path4"
       inkscape:connector-curvature="0" />
  </g>
</svg>
