<?xml version="1.0" encoding="UTF-8" standalone="no"?>
<svg
   xmlns:dc="http://purl.org/dc/elements/1.1/"
   xmlns:cc="http://creativecommons.org/ns#"
   xmlns:rdf="http://www.w3.org/1999/02/22-rdf-syntax-ns#"
   xmlns:svg="http://www.w3.org/2000/svg"
   xmlns="http://www.w3.org/2000/svg"
   xmlns:sodipodi="http://sodipodi.sourceforge.net/DTD/sodipodi-0.dtd"
   xmlns:inkscape="http://www.inkscape.org/namespaces/inkscape"
   width="388.8pt"
   height="115pt"
   version="1.1"
   id="svg43"
   sodipodi:docname="python.svg"
   inkscape:version="0.92.5 (2060ec1f9f, 2020-04-08)">
  <sodipodi:namedview
     pagecolor="#ffffff"
     bordercolor="#666666"
     borderopacity="1"
     objecttolerance="10"
     gridtolerance="10"
     guidetolerance="10"
     inkscape:pageopacity="0"
     inkscape:pageshadow="2"
     inkscape:window-width="1176"
     inkscape:window-height="480"
     id="namedview45"
     showgrid="false"
     inkscape:zoom="0.54012347"
     inkscape:cx="259.19999"
     inkscape:cy="76.666667"
     inkscape:window-x="0"
     inkscape:window-y="38"
     inkscape:window-maximized="0"
     inkscape:current-layer="svg43" />
  <title
     id="title2">Python programming language logo</title>
  <metadata
     id="metadata4">
    <rdf:RDF>
      <dc:format>image/svg+xml</dc:format>
      <dc:type
         rdf:resource="http://purl.org/dc/dcmitype/StillImage" />
      <dc:title />
      <cc:Work
         rdf:about="">
        <dc:format>image/svg+xml</dc:format>
        <dc:type
           rdf:resource="http://purl.org/dc/dcmitype/StillImage" />
      </cc:Work>
    </rdf:RDF>
  </metadata>
  <defs
     id="defs21">
    <linearGradient
       id="vlpc"
       x1="151"
       x2="112"
       y1="192.4"
       y2="137.3"
       gradientTransform="matrix(0.55372718,0,0,0.51337775,30.090964,20.627232)"
       gradientUnits="userSpaceOnUse">
      <stop
         style="stop-color:#ffd43b"
         offset="0"
         id="stop6" />
      <stop
         style="stop-color:#ffe873"
         offset="1"
         id="stop8" />
    </linearGradient>
    <linearGradient
       id="vlpb"
       x1="26.65"
       x2="135.7"
       y1="20.6"
       y2="114.4"
       gradientTransform="matrix(0.55372718,0,0,0.51337775,30.090964,20.627232)"
       gradientUnits="userSpaceOnUse">
      <stop
         style="stop-color:#5a9fd4"
         offset="0"
         id="stop11" />
      <stop
         style="stop-color:#306998"
         offset="1"
         id="stop13" />
    </linearGradient>
    <radialGradient
       id="vlpa"
       cx="61.52"
       cy="132.3"
       r="29.04"
       gradientTransform="matrix(1.7493603e-8,-0.2399358,1.0549017,3.791698e-7,-42.08185,152.83975)"
       gradientUnits="userSpaceOnUse">
      <stop
         style="stop-color:#b8b8b8;stop-opacity:.498"
         offset="0"
         id="stop16" />
      <stop
         style="stop-color:#7f7f7f;stop-opacity:0"
         offset="1"
         id="stop18" />
    </radialGradient>
  </defs>
  <path
     d="m 221.06532,81.396516 c 0,-13.159824 -4.08723,-19.920503 -12.26567,-20.291075 -3.25247,-0.140998 -6.42914,0.33478 -9.5182,1.436192 -2.46593,0.810468 -4.12564,1.61244 -4.99881,2.422276 v 31.417272 c 5.22917,3.013382 9.87358,4.413419 13.91948,4.193789 8.56825,-0.51979 12.85632,-6.907099 12.85632,-19.179358 z m 10.0803,0.546187 c 0,6.686564 -1.70793,12.237913 -5.14253,16.648623 -3.82834,4.995494 -9.13428,7.567804 -15.91781,7.708804 -5.11397,0.14976 -10.38546,-1.32141 -15.79967,-4.40529 v 28.55212 l -8.77006,-2.87239 V 64.197728 c 1.4392,-1.620574 3.29086,-3.013382 5.53629,-4.19379 5.2193,-2.792847 11.56674,-4.229039 19.02853,-4.299538 l 0.12472,0.114515 c 6.82192,-0.07929 12.07863,2.492775 15.77015,7.708801 3.44442,4.783994 5.17206,10.918316 5.17206,18.4111 z"
     style="fill:#646464;stroke-width:0.94325912"
     id="path23"
     inkscape:connector-curvature="0" />
  <path
     d="m 284.75626,100.68433 c 0,8.96875 -0.9787,15.17538 -2.93648,18.63706 -1.96684,3.45355 -5.70954,6.21115 -11.23205,8.26376 -4.48101,1.62057 -9.32624,2.50181 -14.5298,2.65185 l -1.44904,-5.07413 c 5.28723,-0.6607 9.01025,-1.3214 11.17299,-1.98211 4.25065,-1.3214 7.16744,-3.3478 8.77004,-6.06111 1.28564,-2.21168 1.91861,-6.43078 1.91861,-12.68079 v -2.09689 c -5.99699,2.50181 -12.28536,3.74458 -18.85133,3.74458 -4.31759,0 -8.12724,-1.24187 -11.40924,-3.74458 -3.68463,-2.722352 -5.52645,-6.175902 -5.52645,-10.357942 V 58.469861 l 8.77005,-2.757598 V 89.44335 c 0,3.603587 1.26693,6.378357 3.7998,8.325216 2.53288,1.946859 5.81488,2.880524 9.83519,2.810024 4.0203,-0.0793 8.32806,-1.506695 12.90553,-4.299543 V 56.926112 h 8.77005 v 43.754608 z"
     style="fill:#646464;stroke-width:0.94325912"
     id="path25"
     inkscape:connector-curvature="0" />
  <path
     d="m 319.01352,105.8633 c -1.04544,0.0793 -2.00524,0.11452 -2.88824,0.11452 -4.96042,0 -8.82716,-1.0837 -11.58643,-3.25923 -2.75339,-2.17643 -4.13549,-5.179869 -4.13549,-9.012126 V 61.990927 h -6.00684 v -5.06599 h 6.00684 V 43.475886 l 8.76021,-2.863346 v 16.314205 h 9.85388 v 5.06599 h -9.85388 v 31.498617 c 0,3.021517 0.88272,5.1627 2.64805,6.413607 1.51598,1.030371 3.92482,1.620571 7.20583,1.770611 v 4.19379 z"
     style="fill:#646464;stroke-width:0.94325912"
     id="path27"
     inkscape:connector-curvature="0" />
  <path
     d="m 372.07288,105.2035 h -8.77004 V 74.120651 c 0,-3.162515 -0.80604,-5.884863 -2.40884,-8.158006 -1.85167,-2.572312 -4.42293,-3.858467 -7.72364,-3.858467 -4.0203,0 -9.04863,1.946858 -15.08107,5.840575 v 37.256037 h -8.77004 V 30.905633 l 8.77004,-2.537062 v 33.839547 c 5.60324,-3.744584 11.72426,-5.620944 18.37883,-5.620944 4.64441,0 8.40484,1.436193 11.28127,4.299539 2.88824,2.863346 4.32744,6.430779 4.32744,10.692357 v 33.61359 z"
     style="fill:#646464;stroke-width:0.94325912"
     id="path29"
     inkscape:connector-curvature="0" />
  <path
     d="m 418.73364,80.131148 c 0,-5.056952 -1.04544,-9.228146 -3.12844,-12.536178 -2.47578,-4.025677 -6.32283,-6.148784 -11.52737,-6.369319 -9.61467,0.510937 -14.41167,6.836601 -14.41167,18.962439 0,5.558579 0.99818,10.204286 3.01325,13.928082 2.57127,4.748745 6.42915,7.091478 11.57659,7.012848 9.65307,-0.0705 14.48059,-7.06527 14.48059,-20.996064 z m 9.60482,0.05286 c 0,7.197231 -2.00523,13.186939 -6.00683,17.968221 -4.40423,5.356121 -10.48391,8.043211 -18.25085,8.043211 -7.69509,0 -13.69305,-2.68709 -18.02443,-8.043211 -3.92483,-4.783993 -5.88182,-10.773702 -5.88182,-17.968221 0,-6.766102 2.12041,-12.454833 6.36122,-17.091502 4.48101,-4.915953 10.37561,-7.382517 17.65036,-7.382517 7.28262,0 13.2107,2.466564 17.77833,7.382517 4.24082,4.633957 6.36123,10.321785 6.36123,17.091502 z"
     style="fill:#646464;stroke-width:0.94325912"
     id="path31"
     inkscape:connector-curvature="0" />
  <path
     d="m 478.58539,105.2035 h -8.77005 V 72.358175 c 0,-3.603586 -1.1803,-6.413606 -3.5409,-8.440002 -2.3606,-2.017358 -5.50775,-2.995307 -9.43158,-2.915769 -4.16402,0.07048 -8.12724,1.321405 -11.8916,3.744584 V 105.2026 H 436.1812 V 63.752771 c 5.04704,-3.374013 9.69147,-5.576656 13.92932,-6.607027 4.0016,-0.959872 7.53168,-1.436192 10.5725,-1.436192 2.08202,0 4.03999,0.185014 5.88182,0.555044 3.44443,0.731202 6.24604,2.087857 8.40484,4.079003 2.40883,2.202644 3.60784,4.845455 3.60784,7.937471 v 36.92162 z"
     style="fill:#646464;stroke-width:0.94325912"
     id="path33"
     inkscape:connector-curvature="0" />
  <path
     d="m 98.910644,31.204802 c -4.512508,0.01925 -8.821244,0.372561 -12.610215,0.988795 -11.172985,1.812187 -13.200857,5.603771 -13.200857,12.599447 v 9.237184 h 26.391869 v 3.078459 H 73.099572 63.196469 c -7.670475,0 -14.391985,4.233558 -16.488765,12.283105 -2.423603,9.228145 -2.530903,14.994607 0,24.629478 1.876273,7.17463 6.35728,12.2831 14.027756,12.2831 h 9.075219 V 95.232408 c 0,-7.998932 7.537581,-15.057876 16.488765,-15.057876 h 26.362336 c 7.33874,0 13.20086,-5.547733 13.20086,-12.31022 V 44.789428 c 0,-6.567258 -6.03439,-11.496769 -13.20086,-12.599446 -4.53416,-0.69297 -9.23863,-1.007775 -13.752121,-0.988795 z m -14.273857,7.428613 c 2.726798,0 4.952536,2.077914 4.952536,4.632149 -2e-6,2.545197 -2.226722,4.604131 -4.952536,4.604131 -2.735659,-10e-7 -4.952537,-2.05803 -4.952537,-4.604131 -1e-6,-2.554235 2.216878,-4.632149 4.952537,-4.632149 z"
     style="fill:url(#vlpb);stroke-width:0.94325912"
     id="path35"
     inkscape:connector-curvature="0" />
  <path
     d="M 129.15153,57.101456 V 67.86612 c 0,8.343292 -7.70394,15.365179 -16.48877,15.365179 H 86.300429 c -7.221587,0 -13.200857,5.67427 -13.200857,12.31022 V 118.6164 c 0,6.56726 6.220449,10.43025 13.200857,12.31022 8.354636,2.25597 16.370641,2.6636 26.362331,0 6.64473,-1.76609 13.20086,-5.32177 13.20086,-12.31022 v -9.23718 H 99.501286 v -3.07846 h 26.362334 13.20086 c 7.67048,0 10.53313,-4.91234 13.20085,-12.283105 2.75536,-7.591303 2.63821,-14.895186 0,-24.629479 -1.89596,-7.011041 -5.5166,-12.283105 -13.20085,-12.283105 h -9.90311 z m -14.82512,58.441914 c 2.73566,0 4.95254,2.05803 4.95254,4.60413 0,2.55423 -2.21688,4.63215 -4.95254,4.63215 -2.7268,0 -4.95253,-2.07792 -4.95253,-4.63215 0,-2.5452 2.22672,-4.60413 4.95253,-4.60413 z"
     style="fill:url(#vlpc);stroke-width:0.94325912"
     id="path37"
     inkscape:connector-curvature="0" />
  <path
     d="m 495.71402,49.744247 h 1.53764 v -8.853959 h 3.6423 V 39.83461 h -8.82224 v 1.055678 h 3.6423 v 8.853959 m 6.54334,0 h 1.31319 v -8.086604 l 2.85083,8.0857 h 1.46282 l 2.97093,-8.058585 v 8.059489 h 1.4333 v -9.906022 h -1.89596 l -3.24657,8.489714 -2.76913,-8.489714 h -2.11941 v 9.906022"
     style="fill:#646464;stroke-width:0.94325912"
     id="path39"
     inkscape:connector-curvature="0" />
  <path
     d="m 133.36805,138.10685 a 35.934195,6.9673665 0 1 1 -71.86839,0 35.934195,6.9673665 0 1 1 71.86839,0 z"
     style="opacity:0.44380002;fill:url(#vlpa);stroke-width:0.77087867"
     id="path41"
     inkscape:connector-curvature="0" />
</svg>
